# File created by Blade
# Date/Time:  Wed Jan 21 16:09:38 2015
# Frame Rate: 120.000 fps
#------------------------------------------------------
:FULLY-SPECIFIED
:DEGREES
837
root 19.279602 35.128542 -22.762586 -174.733707 3.106393 -177.732653
Spine -14.112185 3.496514 0.525142
Head 6.665938 -1.734903 -0.751681
LeftShoulder -14.275250 -33.467824 18.118987
LeftArm 11.786330 7.255371 -11.310420
LeftForeArm 8.395279 -0.000000 -2.183243
LeftHand -8.895662 -0.000000 1.308901
LeftHandThumb1 -26.253704 0.000000 33.147579
RightShoulder -11.993352 -4.004311 -9.466794
RightArm 8.897353 39.566371 16.534023
RightForeArm -33.521422 0.000000 5.352643
RightHand -12.038993 -0.000000 -1.563489
RightHandThumb1 -24.326973 -0.000000 -32.862282
LeftUpLeg 4.744977 1.203896 7.082962
LeftLeg -12.539497 -0.000000 0.000000
LeftFoot 0.415943 23.922979 10.416938
LeftToeBase -140.195593 -0.000000 0.000000
RightUpLeg 2.641093 -9.014953 -4.048421
RightLeg -4.227325 -0.000000 0.000000
RightFoot -18.949458 -17.134718 18.041507
RightToeBase 25.916943 -0.000000 -0.000000
838
root 19.323850 35.131980 -22.774454 -174.769639 3.209581 -177.651573
Spine -14.141383 3.530755 0.745298
Head 6.795385 -1.652920 -0.901905
LeftShoulder -14.356761 -33.440541 18.057954
LeftArm 11.650273 7.269274 -11.315937
LeftForeArm 8.530430 -0.000000 -2.197400
LeftHand -8.731686 -0.000000 1.102742
LeftHandThumb1 -26.253704 0.000000 33.147579
RightShoulder -11.904213 -3.864475 -9.583717
RightArm 8.827768 39.427564 16.377852
RightForeArm -33.685968 -0.000000 5.387136
RightHand -12.067272 -0.000000 -1.352258
RightHandThumb1 -24.326973 -0.000000 -32.862282
LeftUpLeg 4.773292 1.330513 7.229080
LeftLeg -12.423935 -0.000000 0.000000
LeftFoot 0.347786 23.927698 10.378419
LeftToeBase -140.152640 -0.000000 0.000000
RightUpLeg 2.617310 -8.808351 -3.899641
RightLeg -4.105326 -0.000000 0.000000
RightFoot -19.044492 -17.245776 18.057672
RightToeBase 25.800410 -0.000000 -0.000000
839
root 19.367446 35.134755 -22.788750 -174.847611 3.298606 -177.581780
Spine -14.119533 3.552743 0.946271
Head 6.942198 -1.594544 -1.052228
LeftShoulder -14.390992 -33.461831 17.985244
LeftArm 11.454603 7.316880 -11.303737
LeftForeArm 8.694076 0.000000 -2.150034
LeftHand -8.859279 -0.000000 1.023755
LeftHandThumb1 -26.253704 0.000000 33.147579
RightShoulder -11.875764 -3.851285 -9.662198
RightArm 8.911694 39.407379 16.314658
RightForeArm -33.842513 0.000000 5.397209
RightHand -11.940293 -0.000000 -1.121827
RightHandThumb1 -24.326973 -0.000000 -32.862282
LeftUpLeg 4.848655 1.506839 7.362106
LeftLeg -12.323362 -0.000000 0.000000
LeftFoot 0.276357 23.883061 10.307357
LeftToeBase -140.114158 -0.000000 0.000000
RightUpLeg 2.650030 -8.615049 -3.768323
RightLeg -3.994797 -0.000000 0.000000
RightFoot -19.140727 -17.374982 18.021412
RightToeBase 25.768991 -0.000000 -0.000000
840
root 19.410084 35.136034 -22.806475 -174.967384 3.358501 -177.519186
Spine -14.038202 3.513165 1.141900
Head 7.055561 -1.503687 -1.167411
LeftShoulder -14.464041 -33.456168 17.964171
LeftArm 11.263975 7.381154 -11.304827
LeftForeArm 8.845254 0.000000 -2.155303
LeftHand -8.970130 0.000000 0.754297
LeftHandThumb1 -26.253704 0.000000 33.147579
RightShoulder -11.824328 -3.790804 -9.747081
RightArm 8.999517 39.336509 16.257089
RightForeArm -33.974990 -0.000000 5.390253
RightHand -11.899640 -0.000000 -0.893444
RightHandThumb1 -24.326973 -0.000000 -32.862282
LeftUpLeg 4.980277 1.629805 7.491926
LeftLeg -12.254899 -0.000000 0.000000
LeftFoot 0.225747 23.830383 10.261162
LeftToeBase -140.117124 -0.000000 0.000000
RightUpLeg 2.745235 -8.522947 -3.649239
RightLeg -3.906350 -0.000000 0.000000
RightFoot -19.222483 -17.447519 17.961060
RightToeBase 25.710899 -0.000000 -0.000000
841
root 19.449507 35.137082 -22.826005 -175.101028 3.387592 -177.468317
Spine -13.940976 3.495364 1.315388
Head 7.142153 -1.468187 -1.273597
LeftShoulder -14.494300 -33.445662 17.901556
LeftArm 11.136329 7.433782 -11.307405
LeftForeArm 9.019085 -0.000000 -2.231304
LeftHand -9.015911 -0.000000 0.582924
LeftHandThumb1 -26.253704 0.000000 33.147579
RightShoulder -11.834832 -3.827340 -9.824192
RightArm 9.109631 39.324063 16.238246
RightForeArm -34.073797 -0.000000 5.387682
RightHand -11.944035 -0.000000 -0.638576
RightHandThumb1 -24.326973 -0.000000 -32.862282
LeftUpLeg 5.125943 1.665536 7.606649
LeftLeg -12.192235 -0.000000 0.000000
LeftFoot 0.189370 23.847812 10.204582
LeftToeBase -140.053406 -0.000000 0.000000
RightUpLeg 2.877544 -8.440349 -3.548505
RightLeg -3.843806 -0.000000 0.000000
RightFoot -19.288823 -17.542921 17.910152
RightToeBase 25.579578 -0.000000 -0.000000
842
root 19.489876 35.137163 -22.845659 -175.240437 3.378748 -177.426733
Spine -13.843502 3.424634 1.462752
Head 7.241735 -1.435200 -1.335172
LeftShoulder -14.503248 -33.463253 17.887108
LeftArm 10.941434 7.552202 -11.321547
LeftForeArm 9.063743 -0.000000 -2.293106
LeftHand -9.080443 0.000000 0.383518
LeftHandThumb1 -26.253704 0.000000 33.147579
RightShoulder -11.782359 -3.793684 -9.910464
RightArm 9.106983 39.223083 16.152488
RightForeArm -34.089381 -0.000000 5.335070
RightHand -11.772112 -0.000000 -0.403721
RightHandThumb1 -24.326973 -0.000000 -32.862282
LeftUpLeg 5.251201 1.739371 7.721371
LeftLeg -12.097964 -0.000000 0.000000
LeftFoot 0.106609 23.782230 10.183174
LeftToeBase -140.048409 -0.000000 0.000000
RightUpLeg 3.041245 -8.369954 -3.455015
RightLeg -3.819841 -0.000000 0.000000
RightFoot -19.362652 -17.662600 17.863178
RightToeBase 25.548910 -0.000000 -0.000000
843
root 19.522006 35.136302 -22.862021 -175.382113 3.348027 -177.424957
Spine -13.727218 3.306405 1.588246
Head 7.333244 -1.421712 -1.427155
LeftShoulder -14.525951 -33.476619 17.828956
LeftArm 10.762949 7.629666 -11.276529
LeftForeArm 9.154468 0.000000 -2.364648
LeftHand -9.091798 -0.000000 0.117536
LeftHandThumb1 -26.253704 0.000000 33.147579
RightShoulder -11.741484 -3.766447 -9.992344
RightArm 9.191716 39.107586 16.106211
RightForeArm -34.108194 -0.000000 5.266263
RightHand -11.787810 -0.000000 -0.243553
RightHandThumb1 -24.326973 -0.000000 -32.862282
LeftUpLeg 5.375880 1.769668 7.781801
LeftLeg -12.029345 -0.000000 0.000000
LeftFoot 0.055524 23.731310 10.121908
LeftToeBase -140.059923 -0.000000 0.000000
RightUpLeg 3.219228 -8.299265 -3.413279
RightLeg -3.826174 -0.000000 0.000000
RightFoot -19.431672 -17.768816 17.915660
RightToeBase 25.277142 -0.000000 -0.000000
844
root 19.554143 35.133613 -22.880225 -175.502672 3.269235 -177.410251
Spine -13.632480 3.171454 1.710948
Head 7.367241 -1.367039 -1.441755
LeftShoulder -14.577671 -33.486199 17.830933
LeftArm 10.625824 7.654521 -11.314884
LeftForeArm 9.230228 -0.000000 -2.452860
LeftHand -9.184095 -0.000000 0.001048
LeftHandThumb1 -26.253704 0.000000 33.147579
RightShoulder -11.783572 -3.884608 -10.023558
RightArm 9.392088 39.037118 16.081840
RightForeArm -33.985573 0.000000 5.109944
RightHand -11.548799 -0.000000 -0.082135
RightHandThumb1 -24.326973 -0.000000 -32.862282
LeftUpLeg 5.482992 1.727039 7.856933
LeftLeg -11.980645 -0.000000 0.000000
LeftFoot 0.035882 23.729441 10.120332
LeftToeBase -139.979317 -0.000000 0.000000
RightUpLeg 3.402763 -8.226578 -3.357358
RightLeg -3.847548 -0.000000 0.000000
RightFoot -19.538089 -17.960464 17.738972
RightToeBase 25.506890 -0.000000 -0.000000
845
root 19.592402 35.130902 -22.900613 -175.656335 3.167278 -177.372937
Spine -13.511916 3.027626 1.829245
Head 7.433380 -1.370184 -1.427166
LeftShoulder -14.572893 -33.487938 17.812084
LeftArm 10.472383 7.514102 -11.355784
LeftForeArm 9.360091 -0.000000 -2.521924
LeftHand -9.178236 -0.000000 -0.187611
LeftHandThumb1 -26.253704 0.000000 33.147579
RightShoulder -11.775796 -3.932130 -10.057347
RightArm 9.448983 38.981329 16.017339
RightForeArm -33.920951 -0.000000 5.035102
RightHand -11.477076 -0.000000 0.114633
RightHandThumb1 -24.326973 -0.000000 -32.862282
LeftUpLeg 5.608861 1.779116 7.969174
LeftLeg -11.910620 -0.000000 0.000000
LeftFoot -0.052718 23.599457 10.113788
LeftToeBase -139.958037 -0.000000 0.000000
RightUpLeg 3.630669 -8.273608 -3.278747
RightLeg -3.878044 -0.000000 0.000000
RightFoot -19.599049 -18.001792 17.711358
RightToeBase 25.504745 -0.000000 -0.000000
